<svg xmlns="http://www.w3.org/2000/svg" fill="none" viewBox="0 0 32 19"><g clip-path="url(#a)"><path fill="#fff" fill-rule="evenodd" d="M7.467 15.653h7.253L18.027 3.28H7.467A6.191 6.191 0 0 0 1.28 9.467a6.191 6.191 0 0 0 6.187 6.186z" clip-rule="evenodd"/><path fill="#06f" fill-rule="evenodd" d="M23.68 2H7.467A7.42 7.42 0 0 0 0 9.467a7.42 7.42 0 0 0 7.467 7.466H23.68a7.42 7.42 0 0 0 7.467-7.466C31.147 5.307 27.733 2 23.68 2zM1.28 9.467A6.191 6.191 0 0 1 7.467 3.28h10.56L14.72 15.653H7.467A6.191 6.191 0 0 1 1.28 9.466z" clip-rule="evenodd"/><path fill="#fff" d="M25.813 6.267c.213.213.213.64 0 .853l-2.24 2.347 2.347 2.346c.213.214.213.64 0 .854-.214.213-.64.213-.854 0L22.72 10.32l-2.347 2.347c-.213.213-.64.213-.853 0-.214-.214-.214-.64 0-.854l2.24-2.346-2.347-2.347c-.213-.213-.213-.64 0-.853s.64-.214.853 0l2.347 2.346 2.347-2.346c.213-.214.64-.214.853 0z"/><path fill="#06f" d="M13.12 6.373c.213.214.32.64.107.854l-4.48 5.226c-.107.107-.214.214-.32.214-.214.106-.534.106-.747-.107l-2.347-2.347c-.213-.213-.213-.64 0-.853.214-.213.64-.213.854 0l1.92 1.813 4.053-4.8c.213-.213.64-.213.96 0z"/></g><defs><clipPath id="a"><path fill="#fff" d="M0 0h31.147v18.933H0z"/></clipPath></defs></svg>