<svg width="787" height="200" viewBox="0 0 787 200" fill="none" xmlns="http://www.w3.org/2000/svg">
<path d="M115.219 131.422C121.98 134.062 130.222 133.075 135.579 137.872C135.773 138.039 135.252 136.99 135.075 134.761C134.758 130.568 135.546 130.302 139.184 124.167C147.105 114.051 170.987 88.4488 175.125 79.2474C176.922 75.2707 178.852 68.3488 180.466 61.7653C182.596 53.1019 184.176 45.0209 184.176 45.0209C181.947 43.6842 179.806 48.6316 178.026 54.3C177.41 56.2578 176.644 58.2157 176.644 58.2157C176.644 58.2157 176.362 56.3355 178.031 49.1197C179.49 42.8412 180.577 41.2605 180.577 41.2605C178.907 40.2677 175.929 42.0148 173.666 48.8423C172.407 52.625 171.564 56.1247 171.564 56.1247C171.586 55.9195 171.159 55.8973 171.043 52.5861C170.954 49.5079 171.791 47.5556 171.791 47.5556C171.791 47.5556 169.357 47.55 167.121 52.4752C165.99 54.9655 165.313 59.2417 165.313 59.2417C163.877 58.2212 163.821 55.2484 163.821 55.2484C162.812 55.3371 161.104 57.2728 160.172 60.5729C159.39 63.346 159.312 66.9955 159.312 66.9955C158.303 66.2634 158.192 64.3333 158.192 64.3333C158.192 64.3333 155.885 65.7532 154.609 70.8724C153.821 74.0117 153.938 75.5924 153.938 75.5924C152.657 74.9213 152.895 72.8968 152.895 72.8968C150.976 73.5846 148.929 77.0455 147.975 82.0372C147.975 82.0372 146.356 81.4881 144.914 83.4848C143.732 85.1376 142.662 89.5803 140.599 90.8836C138.835 90.4178 138.025 91.76 137.604 92.2647C136.345 93.74 135.213 96.6075 133.816 97.6613C133.128 97.2453 131.841 97.3729 131.087 97.983C129.761 99.0534 128.563 102.193 127.293 103.102C126.561 102.753 125.269 103.019 124.598 103.657C123.56 104.633 123.161 106.347 121.858 107.606C121.07 107.256 120.393 107.489 119.428 108.61C118.131 110.124 118.058 111.339 117.199 112.226C115.779 112.037 114.997 112.819 114.326 113.674C113.655 114.522 113.427 116.114 112.629 117.273C109.556 117.978 108.474 127.539 108.474 127.539C108.474 127.539 111.12 129.825 115.219 131.422Z" fill="#00AFE9"/>
<path d="M97.8322 125.215C101.038 124.234 103.495 125.088 103.495 125.088C103.495 125.088 92.5743 112.714 87.9265 96.0027C80.2004 68.3043 76.1127 69.2916 76.1127 69.2916C76.1127 69.2916 73.506 67.3947 65.8298 53.2682C62.4299 47.023 59.6845 36.8787 59.1687 37.0285C57.6434 37.4611 57.1276 38.8643 56.7505 41.704C56.5286 43.3624 56.573 46.0856 56.573 46.0856C56.573 46.0856 51.6589 40.678 47.4104 30.0623C44.5596 22.9075 42.1802 12.7854 41.2429 13.2402C39.5124 14.0832 38.0925 16.3628 38.381 20.1066C38.6638 23.8448 42.1525 34.8709 42.1525 34.8709L42.0526 34.7156C42.0526 34.7156 37.011 29.8626 33.4003 23.0461C29.7897 16.2463 26.1956 6.20189 25.7408 6.31281C23.5999 6.78425 21.8528 12.0422 26.6116 23.6729C29.1352 29.846 31.7864 34.2997 31.7864 34.2997C31.7864 34.2997 25.0254 31.7761 20.2444 19.5741C15.4635 7.37216 14.931 0.0565356 14.931 0.0565356C14.931 0.0565356 13.4113 -0.525835 12.1745 2.04767C10.9321 4.62672 10.8433 12.0311 13.977 21.0716C17.0719 29.9791 19.4568 33.3235 19.4568 33.3235C19.4568 33.3235 15.2305 31.5209 11.6198 26.08C7.70412 20.1898 5.24708 11.2712 5.24708 11.2712C5.24708 11.2712 4.17109 11.4321 3.60537 12.7133C3.04519 13.9945 1.6586 18.8087 4.78119 26.6457C6.5893 31.1882 9.85056 36.6901 9.85056 36.6901C9.85056 36.6901 7.01637 34.9985 5.06406 32.9852C3.1062 30.9719 0.993046 28.4427 0.993046 28.4427C-1.2144 29.4743 0.649172 35.7084 2.78452 39.8627C4.88658 43.9669 6.98864 46.1522 10.0059 49.3025C13.2893 52.7302 12.9288 54.7601 12.9288 54.7601C11.8306 56.3852 16.5394 61.2882 18.3032 62.525C21.1817 64.5162 22.3742 65.3703 22.3742 65.3703C22.3742 65.3703 19.7452 66.646 25.7797 71.3659C27.5323 72.7358 27.7652 73.1962 27.7652 73.1962C27.7652 73.1962 23.6554 74.8934 33.0787 82.6638C35.9517 85.0321 36.3288 86.0748 36.3288 86.0748C34.798 87.6111 35.5579 88.9256 37.0554 91.2662C37.8818 92.5474 38.2978 94.2612 38.2978 94.2612C38.2978 94.2612 36.412 95.1653 38.1314 98.3322C39.6733 101.155 40.5718 102.875 40.5718 102.875C39.1075 104.095 39.0853 106.613 40.3721 108.404C41.914 110.551 42.3466 112.642 42.3466 112.642C42.3466 112.642 41.2429 113.951 41.4869 115.986C41.8752 119.137 43.2063 121.888 46.29 125.398C50.1614 129.797 51.0765 132.237 51.0765 132.237C51.0765 132.237 49.8619 134.139 51.2374 136.436C53.1176 139.575 58.1149 141.594 59.7399 143.779C60.1226 146.757 64.7982 147.001 64.9923 148.954C65.2031 150.95 67.7156 152.675 69.496 153.313C70.2946 153.635 71.4926 154.306 71.5869 155.46C71.7533 157.695 77.0113 158.688 79.5293 160.13C79.5293 160.13 67.4327 164.251 57.9207 168.582C48.4143 172.914 42.4464 166.17 42.4464 166.17C42.4464 166.17 44.371 177.645 55.4471 179.442C61.3872 180.413 66.2791 179.392 66.2791 179.392C66.2791 179.392 63.5392 182.321 59.091 184.827C54.6317 187.329 51.5258 186.441 51.5258 186.441C51.5258 186.441 54.3267 190.629 62.2802 188.826C66.0018 187.978 68.8692 185.992 68.8692 185.992C68.8692 185.992 68.7971 188.039 65.5081 190.257C62.1027 192.548 60.7438 192.72 60.7438 192.72C60.7438 192.72 62.9402 193.291 65.9629 194.994C68.359 196.336 71.6368 197.412 75.5969 197.107C78.8194 196.857 82.4023 194.084 82.4023 194.084C82.4023 194.084 81.5482 195.56 81.526 196.58C81.4982 198.327 82.1638 199.009 82.1638 199.009C82.1638 199.009 82.6463 193.746 93.3064 197.817C103.883 201.86 109.152 199.048 109.152 199.048C109.152 199.048 107.117 198.006 106.268 196.713C105.641 195.765 105.741 194.722 105.741 194.722C105.741 194.722 109.041 197.551 118.165 195.454C124.799 193.94 129.596 188.904 129.596 188.904C129.596 188.904 121.499 187.651 116.501 175.038C113.617 167.756 114.643 163.746 116.535 160.695C118.337 157.523 121.144 156.469 121.144 156.469C121.144 156.469 117.106 156.414 113.861 159.536C111.548 161.771 110.855 164.045 110.855 164.045C110.855 164.045 107.427 162.176 109.186 156.624C109.186 156.624 107.771 156.813 106.335 157.939C105.32 158.732 103.556 160.152 101.182 159.858C98.6143 159.547 97.7546 158.66 97.7546 158.66C97.7546 158.66 100.084 157.994 101.315 155.787C102.974 152.836 104.477 152.098 104.477 152.098C104.477 152.098 102.852 151.488 101.31 152.043C99.8567 152.564 99.4019 153.618 99.4019 153.618C99.4019 153.618 98.5644 151.577 100.55 149.02C102.913 145.975 106.13 144.3 106.13 144.3C106.13 144.3 104.194 144.2 101.959 142.814C99.0302 141.006 95.8577 142.753 95.8577 142.753C95.8577 142.753 97.0058 140.168 99.8567 138.177C102.208 136.53 103.972 135.77 103.972 135.77C103.972 135.77 102.43 135.626 101.532 133.812C100.622 132.004 100.178 130.329 98.825 128.759C96.9781 126.591 94.1606 127.295 94.1606 127.295C94.1606 127.295 95.952 125.792 97.8322 125.215Z" fill="#00AFE9"/>
<path d="M94.6178 127.169C94.9135 127.137 95.3273 127.116 95.7994 127.164C96.685 127.254 97.778 127.585 98.6832 128.53L98.8619 128.727C99.5428 129.516 99.993 130.333 100.386 131.176C100.781 132.022 101.115 132.886 101.57 133.79C102.014 134.681 102.616 135.161 103.105 135.42C103.35 135.549 103.568 135.624 103.723 135.665C103.801 135.686 103.863 135.698 103.906 135.705C103.927 135.709 103.944 135.711 103.955 135.713C103.96 135.714 103.964 135.715 103.966 135.715C103.968 135.715 103.97 135.715 103.97 135.715L104.163 135.733L103.985 135.811H103.984C103.983 135.811 103.982 135.812 103.98 135.813C103.977 135.814 103.972 135.816 103.965 135.819C103.952 135.825 103.932 135.834 103.906 135.846C103.853 135.87 103.775 135.907 103.674 135.955C103.473 136.052 103.18 136.199 102.813 136.397C102.08 136.792 101.052 137.393 99.8785 138.213C98.4617 139.207 97.467 140.348 96.8268 141.24C96.5069 141.686 96.2759 142.07 96.1246 142.342C96.0551 142.467 96.0019 142.569 95.9655 142.642C95.9692 142.64 95.9733 142.639 95.9772 142.637C96.0705 142.592 96.2069 142.53 96.3795 142.462C96.7248 142.325 97.2157 142.162 97.7985 142.056C98.9639 141.843 100.501 141.856 101.973 142.766C103.091 143.456 104.131 143.828 104.892 144.026C105.273 144.126 105.584 144.182 105.798 144.213C105.906 144.229 105.989 144.238 106.046 144.243C106.074 144.246 106.096 144.248 106.11 144.249C106.117 144.25 106.123 144.25 106.127 144.25H106.131L106.314 144.261L106.151 144.345L106.149 144.346C106.148 144.347 106.145 144.348 106.142 144.35C106.136 144.353 106.127 144.358 106.115 144.364C106.091 144.377 106.055 144.396 106.009 144.422C105.917 144.473 105.782 144.55 105.613 144.651C105.275 144.855 104.799 145.158 104.25 145.556C103.15 146.351 101.757 147.525 100.583 149.04C99.5965 150.31 99.314 151.45 99.277 152.27C99.2585 152.68 99.302 153.011 99.3492 153.238C99.3704 153.34 99.393 153.421 99.4108 153.48C99.4224 153.459 99.435 153.434 99.4508 153.408C99.5171 153.299 99.6206 153.149 99.7701 152.982C100.07 152.649 100.554 152.251 101.292 151.99C102.07 151.712 102.868 151.727 103.469 151.81C103.77 151.851 104.023 151.91 104.201 151.959C104.29 151.983 104.36 152.005 104.408 152.021C104.432 152.028 104.45 152.035 104.463 152.039C104.469 152.041 104.474 152.043 104.477 152.044C104.479 152.045 104.48 152.046 104.481 152.046H104.482L104.591 152.087L104.486 152.138V152.139C104.485 152.139 104.484 152.139 104.483 152.14C104.48 152.141 104.476 152.144 104.47 152.147C104.459 152.152 104.443 152.161 104.422 152.174C104.378 152.199 104.314 152.239 104.232 152.295C104.067 152.408 103.83 152.59 103.541 152.864C102.962 153.412 102.176 154.329 101.352 155.8C100.726 156.916 99.8283 157.64 99.0885 158.085C98.7185 158.307 98.3868 158.46 98.1481 158.558C98.0289 158.606 97.9324 158.64 97.8658 158.663C97.8594 158.665 97.8532 158.667 97.8473 158.669C97.8736 158.691 97.9076 158.72 97.9518 158.752C98.07 158.838 98.2552 158.957 98.5201 159.086C99.05 159.344 99.9002 159.642 101.176 159.797C103.533 160.082 105.286 158.683 106.297 157.889C107.018 157.324 107.738 156.996 108.277 156.809C108.546 156.715 108.771 156.657 108.928 156.622C109.007 156.605 109.069 156.592 109.112 156.585C109.133 156.581 109.15 156.579 109.161 156.577C109.166 156.576 109.171 156.576 109.173 156.575H109.178L109.255 156.564L109.232 156.64C108.357 159.401 108.773 161.242 109.401 162.391C109.716 162.966 110.085 163.37 110.375 163.629C110.519 163.758 110.644 163.852 110.733 163.913C110.768 163.937 110.797 163.956 110.82 163.97C110.824 163.957 110.83 163.943 110.836 163.927C110.859 163.859 110.895 163.761 110.946 163.636C111.047 163.385 111.206 163.028 111.438 162.602C111.902 161.748 112.656 160.614 113.82 159.489C115.447 157.921 117.278 157.154 118.701 156.78C119.412 156.593 120.022 156.504 120.455 156.462C120.671 156.441 120.843 156.432 120.961 156.428C121.019 156.426 121.064 156.425 121.095 156.425H121.138C121.142 156.424 121.148 156.422 121.156 156.421C121.171 156.418 121.194 156.414 121.224 156.409C121.284 156.4 121.373 156.387 121.487 156.373C121.715 156.346 122.047 156.318 122.464 156.311C123.193 156.298 124.182 156.353 125.326 156.598L125.825 156.715C127.428 157.124 128.62 157.757 129.41 158.289C129.805 158.555 130.1 158.796 130.297 158.97C130.394 159.057 130.468 159.127 130.517 159.176C130.542 159.2 130.56 159.219 130.573 159.232C130.574 159.233 130.575 159.234 130.576 159.235C130.584 159.235 130.594 159.235 130.605 159.234C130.639 159.233 130.689 159.232 130.753 159.229C130.881 159.222 131.065 159.212 131.291 159.195C131.742 159.162 132.356 159.105 133.01 159.008C133.665 158.911 134.36 158.773 134.969 158.581C135.58 158.389 136.1 158.143 136.415 157.831H136.416C138.866 155.402 140.548 151.346 140.055 146.107C139.871 144.185 138.744 142.134 137.657 140.559C137.114 139.772 136.583 139.106 136.187 138.637C135.989 138.402 135.826 138.217 135.712 138.09C135.654 138.027 135.609 137.978 135.579 137.945C135.564 137.929 135.551 137.917 135.544 137.908C135.54 137.904 135.537 137.901 135.535 137.898L135.533 137.897C132.865 135.512 129.478 134.563 125.905 133.881C122.335 133.2 118.576 132.785 115.19 131.463C113.139 130.663 111.45 129.692 110.273 128.921C109.685 128.535 109.225 128.199 108.912 127.96C108.755 127.84 108.635 127.744 108.554 127.679C108.514 127.646 108.483 127.621 108.463 127.604L108.433 127.579L108.431 127.577L108.43 127.576C108.428 127.574 108.424 127.572 108.419 127.568C108.408 127.561 108.393 127.55 108.373 127.535C108.333 127.506 108.274 127.465 108.2 127.412C108.051 127.307 107.839 127.16 107.584 126.994C107.201 126.744 106.722 126.45 106.22 126.185L105.714 125.932C105.036 125.614 104.476 125.414 104.085 125.293C103.889 125.233 103.735 125.192 103.631 125.167C103.58 125.154 103.54 125.145 103.513 125.14C103.5 125.137 103.49 125.135 103.483 125.134C103.48 125.133 103.478 125.132 103.476 125.132H103.473L103.466 125.13L103.465 125.129C103.464 125.129 103.463 125.128 103.461 125.127C103.456 125.125 103.448 125.124 103.439 125.121C103.421 125.115 103.393 125.106 103.357 125.096C103.284 125.075 103.176 125.046 103.037 125.015C102.758 124.951 102.353 124.877 101.848 124.833C100.839 124.745 99.4324 124.778 97.8453 125.264C96.912 125.55 95.9975 126.067 95.3151 126.514C94.9744 126.737 94.6918 126.942 94.4948 127.091C94.4362 127.135 94.3852 127.176 94.3424 127.209C94.4164 127.197 94.5091 127.181 94.6178 127.169Z" fill="white" stroke="#F58025" stroke-width="0.1"/>
<path d="M124.894 149.77C125.279 150.806 125.273 151.737 125.387 152.617C125.503 153.506 125.743 154.358 126.632 155.258C127.64 156.274 128.695 156.583 129.507 156.833C129.911 156.957 130.263 157.068 130.512 157.249C130.638 157.34 130.74 157.451 130.809 157.59C130.861 157.694 130.895 157.813 130.909 157.95L130.917 158.093C130.92 158.416 130.743 158.648 130.571 158.797C130.485 158.871 130.399 158.926 130.335 158.962C130.314 158.973 130.295 158.982 130.279 158.99C130.291 159.009 130.307 159.032 130.326 159.061C130.375 159.139 130.446 159.253 130.53 159.398C130.697 159.688 130.918 160.101 131.132 160.597C131.561 161.589 131.965 162.917 131.859 164.249C131.691 166.348 130.639 167.646 129.63 168.418C129.125 168.803 128.631 169.057 128.263 169.215C128.123 169.275 128 169.319 127.902 169.353C128.026 169.361 128.192 169.371 128.391 169.377C128.858 169.39 129.511 169.39 130.25 169.34C131.729 169.238 133.55 168.929 134.934 168.106C136.771 167.012 137.313 165.081 137.393 163.413C137.433 162.579 137.358 161.814 137.272 161.257C137.229 160.978 137.184 160.752 137.149 160.595C137.132 160.517 137.117 160.457 137.107 160.416L137.092 160.357C137.092 160.356 137.092 160.355 137.091 160.354V160.353L137.081 160.315L137.116 160.297V160.296C137.116 160.295 137.118 160.295 137.119 160.295C137.121 160.293 137.125 160.292 137.13 160.289C137.139 160.283 137.153 160.275 137.172 160.263C137.209 160.24 137.263 160.204 137.332 160.156C137.469 160.059 137.665 159.909 137.892 159.697C138.347 159.274 138.931 158.604 139.447 157.619C140.462 155.681 141.214 152.518 140.185 147.606C140.183 147.617 140.182 147.628 140.179 147.639C140.143 147.816 140.088 148.071 140.014 148.386C139.867 149.016 139.643 149.886 139.341 150.844C138.776 152.641 137.931 154.757 136.779 156.196L136.545 156.474C135.819 157.284 135.06 157.766 134.482 158.046C134.193 158.185 133.95 158.275 133.778 158.33C133.692 158.357 133.624 158.375 133.578 158.386C133.554 158.392 133.536 158.396 133.524 158.399C133.518 158.4 133.514 158.402 133.51 158.403C133.509 158.403 133.507 158.403 133.507 158.403L133.506 158.404H133.505L133.423 158.42L133.448 158.34V158.339L133.449 158.337C133.45 158.335 133.451 158.331 133.452 158.327C133.454 158.318 133.458 158.306 133.463 158.289C133.472 158.255 133.485 158.204 133.5 158.138C133.53 158.008 133.568 157.817 133.599 157.58C133.662 157.104 133.698 156.44 133.591 155.688C133.378 154.185 132.595 152.326 130.307 150.904C128.205 149.596 126.842 149.325 126.008 149.376C125.592 149.401 125.307 149.507 125.128 149.605C125.038 149.654 124.974 149.702 124.933 149.736C124.917 149.75 124.903 149.761 124.894 149.77Z" fill="#00AFE9" stroke="#F58025" stroke-width="0.1"/>
<path d="M191.939 149.618C191.697 148.723 191.342 147.935 190.874 147.253C190.405 146.557 189.83 145.967 189.148 145.484C188.466 145.001 187.685 144.639 186.804 144.398C185.923 144.142 184.957 144.014 183.906 144.014C181.79 144.014 179.957 144.526 178.409 145.548C176.875 146.571 175.689 148.062 174.851 150.023C174.013 151.969 173.594 154.334 173.594 157.118C173.594 159.916 173.999 162.303 174.808 164.277C175.618 166.251 176.79 167.757 178.324 168.794C179.858 169.831 181.719 170.349 183.906 170.349C185.838 170.349 187.472 170.037 188.807 169.412C190.156 168.773 191.179 167.871 191.875 166.706C192.571 165.541 192.919 164.17 192.919 162.594L194.879 162.828H184.268V155.136H203.082V160.911C203.082 164.817 202.251 168.162 200.589 170.946C198.942 173.73 196.669 175.868 193.771 177.359C190.888 178.851 187.571 179.597 183.821 179.597C179.659 179.597 176.001 178.695 172.848 176.891C169.695 175.087 167.237 172.516 165.476 169.178C163.714 165.825 162.834 161.848 162.834 157.246C162.834 153.666 163.366 150.491 164.432 147.722C165.497 144.937 166.982 142.58 168.885 140.648C170.803 138.716 173.018 137.253 175.533 136.259C178.061 135.264 180.781 134.767 183.693 134.767C186.222 134.767 188.572 135.129 190.746 135.854C192.933 136.578 194.865 137.601 196.541 138.922C198.232 140.243 199.602 141.812 200.653 143.631C201.705 145.449 202.358 147.445 202.614 149.618H191.939ZM217.39 179H206.055L220.778 135.364H234.819L249.542 179H238.207L227.958 146.358H227.617L217.39 179ZM215.877 161.827H239.57V169.838H215.877V161.827ZM247.363 143.929V135.364H284.245V143.929H271.014V179H260.616V143.929H247.363ZM289.396 179V135.364H319.822V143.929H299.943V152.878H318.267V161.464H299.943V170.435H319.822V179H289.396ZM339.318 179V135.364H357.344C360.611 135.364 363.43 135.953 365.803 137.132C368.189 138.297 370.028 139.973 371.321 142.161C372.614 144.334 373.26 146.912 373.26 149.895C373.26 152.92 372.599 155.491 371.278 157.608C369.957 159.71 368.082 161.315 365.653 162.423C363.224 163.517 360.348 164.064 357.024 164.064H345.625V155.754H355.064C356.655 155.754 357.983 155.548 359.048 155.136C360.128 154.71 360.945 154.071 361.499 153.219C362.053 152.352 362.33 151.244 362.33 149.895C362.33 148.545 362.053 147.43 361.499 146.55C360.945 145.655 360.128 144.987 359.048 144.547C357.969 144.092 356.641 143.865 355.064 143.865H349.865V179H339.318ZM363.885 159.057L374.751 179H363.246L352.592 159.057H363.885ZM420.231 157.182C420.231 161.983 419.308 166.053 417.461 169.391C415.614 172.729 413.114 175.264 409.961 176.997C406.822 178.73 403.299 179.597 399.393 179.597C395.472 179.597 391.942 178.723 388.803 176.976C385.664 175.229 383.171 172.693 381.325 169.369C379.492 166.031 378.576 161.969 378.576 157.182C378.576 152.381 379.492 148.311 381.325 144.973C383.171 141.635 385.664 139.099 388.803 137.366C391.942 135.634 395.472 134.767 399.393 134.767C403.299 134.767 406.822 135.634 409.961 137.366C413.114 139.099 415.614 141.635 417.461 144.973C419.308 148.311 420.231 152.381 420.231 157.182ZM409.45 157.182C409.45 154.341 409.045 151.94 408.235 149.98C407.44 148.02 406.289 146.536 404.783 145.527C403.292 144.518 401.495 144.014 399.393 144.014C397.305 144.014 395.508 144.518 394.002 145.527C392.496 146.536 391.339 148.02 390.529 149.98C389.734 151.94 389.336 154.341 389.336 157.182C389.336 160.023 389.734 162.423 390.529 164.384C391.339 166.344 392.496 167.828 394.002 168.837C395.508 169.845 397.305 170.349 399.393 170.349C401.495 170.349 403.292 169.845 404.783 168.837C406.289 167.828 407.44 166.344 408.235 164.384C409.045 162.423 409.45 160.023 409.45 157.182ZM465.998 151.173H455.344C455.202 150.08 454.911 149.092 454.471 148.212C454.031 147.331 453.448 146.578 452.724 145.953C451.999 145.328 451.14 144.852 450.146 144.526C449.165 144.185 448.079 144.014 446.886 144.014C444.769 144.014 442.944 144.533 441.41 145.57C439.89 146.607 438.718 148.105 437.894 150.065C437.085 152.026 436.68 154.398 436.68 157.182C436.68 160.08 437.092 162.509 437.915 164.469C438.754 166.415 439.925 167.885 441.431 168.879C442.951 169.859 444.748 170.349 446.822 170.349C447.987 170.349 449.045 170.2 449.996 169.902C450.962 169.604 451.808 169.17 452.532 168.602C453.271 168.02 453.874 167.317 454.343 166.493C454.826 165.655 455.16 164.71 455.344 163.659L465.998 163.723C465.813 165.655 465.252 167.558 464.315 169.433C463.391 171.308 462.12 173.02 460.501 174.568C458.881 176.102 456.907 177.324 454.577 178.233C452.262 179.142 449.606 179.597 446.609 179.597C442.66 179.597 439.123 178.73 435.998 176.997C432.887 175.25 430.43 172.707 428.626 169.369C426.822 166.031 425.92 161.969 425.92 157.182C425.92 152.381 426.836 148.311 428.668 144.973C430.501 141.635 432.979 139.099 436.104 137.366C439.229 135.634 442.731 134.767 446.609 134.767C449.251 134.767 451.694 135.136 453.938 135.875C456.183 136.599 458.157 137.665 459.862 139.071C461.566 140.463 462.951 142.175 464.016 144.206C465.082 146.237 465.742 148.56 465.998 151.173ZM472.033 179V135.364H482.58V153.815H483.155L497.58 135.364H510.002L494.533 154.838L510.279 179H497.665L486.799 161.848L482.58 167.175V179H472.033Z" fill="#F58025"/>
<path d="M566.662 151.173H556.009C555.866 150.08 555.575 149.092 555.135 148.212C554.695 147.331 554.112 146.578 553.388 145.953C552.663 145.328 551.804 144.852 550.81 144.526C549.83 144.185 548.743 144.014 547.55 144.014C545.433 144.014 543.608 144.533 542.074 145.57C540.554 146.607 539.382 148.105 538.558 150.065C537.749 152.026 537.344 154.398 537.344 157.182C537.344 160.08 537.756 162.509 538.58 164.469C539.418 166.415 540.589 167.885 542.095 168.879C543.615 169.859 545.412 170.349 547.486 170.349C548.651 170.349 549.709 170.2 550.661 169.902C551.626 169.604 552.472 169.17 553.196 168.602C553.935 168.02 554.538 167.317 555.007 166.493C555.49 165.655 555.824 164.71 556.009 163.659L566.662 163.723C566.477 165.655 565.916 167.558 564.979 169.433C564.055 171.308 562.784 173.02 561.165 174.568C559.545 176.102 557.571 177.324 555.241 178.233C552.926 179.142 550.27 179.597 547.273 179.597C543.324 179.597 539.787 178.73 536.662 176.997C533.551 175.25 531.094 172.707 529.29 169.369C527.486 166.031 526.584 161.969 526.584 157.182C526.584 152.381 527.5 148.311 529.332 144.973C531.165 141.635 533.643 139.099 536.768 137.366C539.893 135.634 543.395 134.767 547.273 134.767C549.915 134.767 552.358 135.136 554.602 135.875C556.847 136.599 558.821 137.665 560.526 139.071C562.23 140.463 563.615 142.175 564.68 144.206C565.746 146.237 566.406 148.56 566.662 151.173ZM581.023 179H569.688L584.411 135.364H598.452L613.175 179H601.839L591.591 146.358H591.25L581.023 179ZM579.51 161.827H603.203V169.838H579.51V161.827ZM617.873 179V135.364H635.898C639.165 135.364 641.985 136.003 644.357 137.281C646.744 138.545 648.583 140.314 649.876 142.587C651.168 144.845 651.815 147.473 651.815 150.47C651.815 153.482 651.154 156.116 649.833 158.375C648.526 160.619 646.658 162.359 644.229 163.595C641.8 164.831 638.917 165.449 635.579 165.449H624.457V157.139H633.619C635.21 157.139 636.538 156.862 637.603 156.308C638.683 155.754 639.499 154.98 640.053 153.986C640.607 152.977 640.884 151.805 640.884 150.47C640.884 149.121 640.607 147.956 640.053 146.976C639.499 145.982 638.683 145.214 637.603 144.675C636.523 144.135 635.195 143.865 633.619 143.865H628.42V179H617.873ZM667.56 135.364V179H657.013V135.364H667.56ZM672.754 143.929V135.364H709.636V143.929H696.404V179H686.007V143.929H672.754ZM718.777 179H707.441L722.164 135.364H736.206L750.929 179H739.593L729.345 146.358H729.004L718.777 179ZM717.264 161.827H740.957V169.838H717.264V161.827ZM755.627 179V135.364H766.174V170.435H784.327V179H755.627Z" fill="black"/>
</svg>
